<svg width="16" height="16" viewBox="0 0 16 16" fill="none" xmlns="http://www.w3.org/2000/svg">
<path d="M8 10C9.10457 10 10 9.10457 10 8C10 6.89543 9.10457 6 8 6C6.89543 6 6 6.89543 6 8C6 9.10457 6.89543 10 8 10Z" stroke="white" stroke-miterlimit="10" stroke-linecap="round" stroke-linejoin="round"/>
<path d="M1.33301 8.5863V7.41297C1.33301 6.71963 1.89967 6.1463 2.59967 6.1463C3.80634 6.1463 4.29967 5.29297 3.69301 4.2463C3.34634 3.6463 3.55301 2.8663 4.15967 2.51963L5.31301 1.85963C5.83967 1.5463 6.51967 1.73297 6.83301 2.25963L6.90634 2.3863C7.50634 3.43297 8.49301 3.43297 9.09967 2.3863L9.17301 2.25963C9.48634 1.73297 10.1663 1.5463 10.693 1.85963L11.8463 2.51963C12.453 2.8663 12.6597 3.6463 12.313 4.2463C11.7063 5.29297 12.1997 6.1463 13.4063 6.1463C14.0997 6.1463 14.673 6.71297 14.673 7.41297V8.5863C14.673 9.27963 14.1063 9.85297 13.4063 9.85297C12.1997 9.85297 11.7063 10.7063 12.313 11.753C12.6597 12.3596 12.453 13.133 11.8463 13.4796L10.693 14.1396C10.1663 14.453 9.48634 14.2663 9.17301 13.7396L9.09967 13.613C8.49967 12.5663 7.51301 12.5663 6.90634 13.613L6.83301 13.7396C6.51967 14.2663 5.83967 14.453 5.31301 14.1396L4.15967 13.4796C3.55301 13.133 3.34634 12.353 3.69301 11.753C4.29967 10.7063 3.80634 9.85297 2.59967 9.85297C1.89967 9.85297 1.33301 9.27963 1.33301 8.5863Z" stroke="white" stroke-miterlimit="10" stroke-linecap="round" stroke-linejoin="round"/>
</svg>
